# xmcd
#
# Track frame offsets: 
#        150
#        9599
#        34325
#        57043
#        92030
#        130478
#        171673
#
# Disc length: 2521 seconds
#
# Revision: 0
# Processed by: cddbd v1.5.2PL0 Copyright (c) Steve Scherf et al.
# Submitted via: ExactAudioCopy v1.3
#
DISCID=5d09d707
DTITLE=Eric Clapton - Crossroads Guitar Festival 2010
DYEAR=2010
DGENRE=Blues
TTITLE0=Introduction
TTITLE1=Crossroads
TTITLE2=Key To The Highway
TTITLE3=Hands of the Saints (with Citizen Cope)
TTITLE4=Tough Luck Blues
TTITLE5=I Shot The Sheriff
TTITLE6=Shake Your Moneymaker (with Jeff Beck)
EXTD=
EXTT0=
EXTT1=
EXTT2=
EXTT3=
EXTT4=
EXTT5=
EXTT6=
PLAYORDER=
